<?xml version="1.0" standalone="no"?>
<!DOCTYPE svg PUBLIC "-//W3C//DTD SVG 20010904//EN"
 "http://www.w3.org/TR/2001/REC-SVG-20010904/DTD/svg10.dtd">
<svg version="1.0" xmlns="http://www.w3.org/2000/svg"
 width="1024.000000pt" height="1024.000000pt" viewBox="0 0 1024.000000 1024.000000"
 preserveAspectRatio="xMidYMid meet">

<g transform="translate(0.000000,1024.000000) scale(0.100000,-0.100000)"
fill="#000000" stroke="none">
<path d="M0 5120 l0 -5120 5120 0 5120 0 0 5120 0 5120 -5120 0 -5120 0 0
-5120z m5393 2636 c593 -111 1064 -516 1251 -1077 19 -57 38 -123 42 -146 l7
-43 -466 0 -465 0 -40 68 c-65 109 -173 206 -288 259 l-54 24 0 275 0 274
-300 0 -300 0 0 -164 0 -163 -102 -51 c-270 -134 -459 -374 -535 -680 -12 -48
-17 -110 -17 -222 -1 -131 3 -168 22 -240 62 -228 170 -397 341 -532 73 -58
190 -123 264 -147 l37 -13 0 -354 0 -354 -22 0 c-34 0 -202 48 -285 81 -463
184 -805 540 -967 1008 -173 499 -91 1094 212 1521 82 116 258 296 370 378
219 161 462 264 729 307 116 19 443 14 566 -9z m-103 -1197 c105 -51 171 -113
219 -209 51 -103 68 -198 52 -299 -41 -267 -287 -445 -557 -403 -99 16 -176
53 -247 121 -101 96 -147 204 -147 347 0 220 128 396 338 465 44 15 81 18 162
16 97 -2 111 -5 180 -38z m1394 -886 c-20 -84 -72 -231 -115 -322 -80 -169
-166 -289 -313 -437 -227 -226 -458 -359 -749 -429 -56 -14 -108 -25 -114 -25
-10 0 -13 97 -13 454 l0 454 43 17 c108 43 227 145 305 263 l35 52 464 0 463
0 -6 -27z m-37 -1775 c33 -31 33 -106 -1 -138 -35 -32 -96 -33 -130 -1 -21 20
-26 34 -26 71 0 47 20 78 60 93 25 10 73 -2 97 -25z m-267 -388 l0 -400 -75 0
-75 0 0 400 0 400 75 0 75 0 0 -400z m1182 175 l3 -225 93 110 93 110 91 0 91
0 -19 -22 c-11 -13 -57 -64 -102 -115 -45 -50 -82 -94 -82 -98 0 -4 26 -48 59
-98 32 -51 79 -125 105 -165 l46 -73 -87 3 -87 3 -64 100 c-35 55 -67 107 -72
115 -7 12 -14 9 -39 -20 -28 -33 -30 -40 -31 -117 l0 -83 -75 0 -75 0 0 400 0
400 75 0 75 0 2 -225z m-4878 158 c65 -21 137 -92 159 -156 8 -26 13 -49 9
-51 -4 -2 -39 -7 -77 -11 l-70 -7 -18 36 c-32 68 -121 96 -202 62 -133 -56
-136 -399 -5 -466 80 -41 176 -17 211 52 l20 39 72 -7 c40 -4 74 -8 76 -10 2
-1 -4 -24 -12 -49 -24 -68 -70 -120 -135 -152 -50 -25 -68 -28 -152 -28 -109
1 -160 18 -227 78 -79 72 -122 217 -109 366 13 136 68 232 165 284 89 49 188
56 295 20z m2258 -96 l-3 -77 71 0 70 0 0 -55 0 -54 -65 -3 -66 -3 0 -115 c-2
-199 -2 -198 27 -217 21 -14 33 -15 65 -6 l39 10 0 -57 0 -58 -50 -12 c-56
-13 -128 -7 -172 16 -52 27 -58 55 -58 259 l0 185 -55 0 -55 0 0 55 0 55 55 0
55 0 0 69 0 69 58 10 c90 15 87 18 84 -71z m2264 -89 c18 -12 43 -41 56 -63
22 -38 23 -52 26 -262 l3 -223 -75 0 -75 0 -3 199 c-3 195 -4 200 -27 225 -29
31 -93 36 -130 10 -43 -31 -51 -70 -51 -259 l0 -175 -75 0 -75 0 2 283 3 282
73 3 72 3 0 -45 0 -46 33 36 c61 66 172 81 243 32z m-3902 10 c61 -18 140
-101 160 -168 21 -70 20 -164 -1 -231 -57 -176 -294 -234 -438 -107 -117 102
-121 343 -8 450 65 62 186 86 287 56z m670 -2 c41 -17 80 -67 95 -121 6 -23
11 -126 11 -237 l0 -198 -75 0 -75 0 0 180 c0 194 -8 238 -51 260 -34 19 -100
6 -126 -25 -22 -25 -23 -33 -23 -221 l0 -194 -75 0 -75 0 0 280 0 280 73 0 73
0 -4 -42 -4 -43 29 32 c15 18 42 39 58 48 38 19 125 19 169 1z m561 -5 c38
-17 95 -72 95 -91 0 -5 3 -15 6 -23 4 -12 -8 -17 -60 -22 -65 -7 -66 -7 -95
24 -20 22 -38 31 -60 31 -70 0 -112 -50 -76 -90 10 -11 42 -24 74 -30 175 -34
231 -80 231 -190 0 -108 -88 -173 -236 -174 -70 0 -89 4 -140 30 -47 23 -63
38 -82 74 l-23 45 28 6 c15 4 48 7 71 8 37 1 49 -4 72 -29 23 -25 36 -30 74
-30 78 0 121 65 71 106 -8 6 -51 18 -97 28 -136 29 -188 67 -203 147 -15 80
32 155 117 186 53 19 186 16 233 -6z m975 -51 l0 -70 -37 0 c-51 0 -103 -28
-130 -69 -22 -32 -23 -44 -23 -197 l0 -164 -75 0 -75 0 0 280 0 280 75 0 75 0
0 -41 0 -41 27 33 c32 38 75 58 126 59 l37 0 0 -70z m240 -127 c0 -205 5 -228
54 -252 42 -20 101 0 126 42 18 29 20 51 20 215 l0 182 75 0 75 0 0 -280 0
-280 -75 0 -75 0 0 42 0 42 -17 -24 c-57 -82 -167 -101 -254 -45 -67 43 -74
71 -77 323 l-3 222 75 0 76 0 0 -187z m910 -93 l0 -280 -75 0 -75 0 0 280 0
280 75 0 75 0 0 -280z"/>
<path d="M3161 3557 c-47 -24 -65 -62 -69 -144 -7 -137 29 -198 120 -198 42 0
53 4 74 28 13 15 28 46 35 70 14 53 7 153 -15 195 -28 54 -93 76 -145 49z"/>
</g>
</svg>
